<?xml version="1.0" encoding="UTF-8" standalone="no" ?>
<!DOCTYPE svg PUBLIC "-//W3C//DTD SVG 1.1//EN" "http://www.w3.org/Graphics/SVG/1.1/DTD/svg11.dtd">
<svg xmlns="http://www.w3.org/2000/svg" xmlns:xlink="http://www.w3.org/1999/xlink" version="1.1" width="36" height="36" viewBox="0 0 65 65" fill="none" stroke="#000000" stroke-width="2" stroke-linecap="round" stroke-linejoin="round">
<path d="M 8.05824 35.99908 L 0.5945999999999998 35.99908 L 0.5945999999999998 11.96425 L 8.05824 11.96425 z M 4.3224 8.68573 C 1.9358400000000002 8.68573 0 6.708969999999999 0 4.32241 C 0 1.9352499999999995 1.93512 0.000009999999999621423 4.3224 0.000009999999999621423 C 6.70956 0.000009999999999621423 8.6448 1.9351299999999996 8.6448 4.32241 C 8.6448 6.708969999999999 6.70824 8.68573 4.3224 8.68573 z M 35.99196 35.99908 L 28.54452 35.99908 L 28.54452 24.29907 C 28.54452 21.51075 28.488239999999998 17.93486 24.66408 17.93486 C 20.78364 17.93486 20.18904 20.964380000000002 20.18904 24.098190000000002 L 20.18904 35.999080000000006 L 12.733559999999999 35.999080000000006 L 12.733559999999999 11.964250000000007 L 19.8918 11.964250000000007 L 19.8918 15.242890000000006 L 19.99632 15.242890000000006 C 20.99268 13.354570000000006 23.42676 11.361610000000006 27.05808 11.361610000000006 C 34.61172 11.361610000000006 36.00024 16.335740000000005 36.00024 22.796420000000005 L 36.00024 35.99907 z" />
</svg>